<svg id="svg" version="1.1" xmlns="http://www.w3.org/2000/svg" width="400" height="184"
    viewBox="0, 0, 400,184">
    <g id="svgg">
        <path id="path0"
            d="M0.000 92.039 L 0.000 184.077 200.000 184.077 L 400.000 184.077 400.000 92.039 L 400.000 0.000 200.000 0.000 L 0.000 0.000 0.000 92.039 M121.491 26.272 L 199.264 26.336 199.582 26.743 C 199.757 26.968,199.902 27.338,199.904 27.566 C 199.909 28.118,200.240 28.095,200.381 27.533 C 200.532 26.931,201.109 26.434,201.489 26.580 C 201.657 26.644,235.933 26.698,277.658 26.698 C 324.680 26.698,353.800 26.765,354.257 26.873 C 354.720 26.982,355.404 26.982,356.100 26.872 C 357.533 26.647,362.047 26.612,362.598 26.822 C 362.832 26.911,363.495 26.932,364.070 26.869 C 365.243 26.740,366.834 27.381,367.451 28.231 C 367.808 28.724,368.040 35.037,367.997 43.074 C 367.984 45.555,367.989 68.914,368.008 94.984 C 368.027 121.054,368.042 143.254,368.040 144.317 C 368.028 150.664,367.761 155.432,367.388 155.956 C 366.562 157.117,364.070 157.586,358.951 157.545 C 356.875 157.528,354.100 157.548,352.784 157.589 C 349.343 157.695,210.822 157.659,205.430 157.551 L 200.920 157.460 200.552 156.878 C 200.097 156.158,199.982 156.144,199.852 156.790 C 199.629 157.907,199.313 158.032,196.779 158.012 C 195.513 158.001,163.663 157.996,126.001 157.999 C 88.339 158.003,56.406 157.976,55.039 157.939 C 51.108 157.833,47.839 157.858,44.353 158.021 C 41.318 158.163,41.056 158.149,40.027 157.784 C 38.988 157.415,38.833 157.407,36.965 157.634 C 35.012 157.872,34.054 157.716,34.054 157.159 C 34.054 157.082,33.889 157.018,33.686 157.018 C 33.484 157.018,33.318 156.948,33.318 156.863 C 33.318 156.778,33.115 156.616,32.867 156.503 C 31.886 156.057,31.898 156.212,31.847 143.304 C 31.821 136.723,31.793 130.718,31.786 129.959 C 31.714 122.748,31.925 47.921,32.019 46.664 C 32.092 45.706,32.044 43.802,31.906 42.154 C 31.724 39.976,31.715 38.690,31.866 36.723 C 31.974 35.306,32.009 33.069,31.943 31.753 C 31.794 28.789,31.944 28.334,33.442 27.203 L 34.486 26.415 38.182 26.375 C 40.214 26.353,42.126 26.255,42.430 26.157 C 42.734 26.059,43.148 26.030,43.350 26.094 C 43.553 26.157,78.716 26.237,121.491 26.272 M199.940 35.350 C 199.842 35.608,199.641 35.919,199.493 36.042 C 199.282 36.217,182.155 36.270,121.153 36.285 C 46.577 36.304,43.066 36.319,42.705 36.632 C 42.277 37.004,41.843 41.395,41.988 43.902 C 42.028 44.611,42.056 48.463,42.049 52.462 C 42.035 60.547,41.987 136.702,41.996 137.138 C 41.999 137.289,41.943 138.656,41.872 140.175 C 41.769 142.372,41.804 143.250,42.040 144.475 C 42.204 145.321,42.338 146.259,42.338 146.559 C 42.338 147.771,44.103 147.909,59.457 147.905 C 62.140 147.904,93.700 147.897,129.590 147.891 C 165.481 147.884,195.806 147.857,196.979 147.830 C 199.320 147.776,199.570 147.871,199.948 148.954 L 200.128 149.471 200.531 148.873 L 200.934 148.274 204.056 148.150 C 205.774 148.081,240.965 148.027,282.260 148.030 L 357.341 148.035 357.799 147.577 C 358.546 146.830,358.527 148.529,358.427 89.462 C 358.389 66.662,358.292 51.257,358.178 49.793 C 357.931 46.609,357.930 46.706,358.229 44.915 C 358.390 43.953,358.484 42.151,358.474 40.240 L 358.457 37.130 357.829 36.610 L 357.202 36.091 279.096 36.087 C 216.587 36.083,200.943 36.036,200.759 35.851 C 200.632 35.723,200.436 35.453,200.323 35.251 C 200.125 34.895,200.112 34.898,199.940 35.350 M268.561 72.153 C 270.648 72.455,270.962 72.734,270.962 74.289 C 270.962 75.128,271.069 75.814,271.260 76.197 C 271.512 76.703,271.550 77.392,271.504 80.689 C 271.474 82.831,271.505 86.476,271.574 88.789 C 271.679 92.354,271.653 93.149,271.404 94.005 C 271.214 94.661,271.157 95.251,271.243 95.690 C 271.315 96.061,271.411 97.027,271.455 97.837 C 271.499 98.647,271.578 99.855,271.631 100.521 C 271.709 101.508,271.659 101.853,271.363 102.381 C 271.056 102.926,271.027 103.158,271.176 103.839 C 271.514 105.379,271.839 106.674,271.959 106.961 C 272.035 107.143,271.885 107.453,271.547 107.806 C 271.137 108.234,270.992 108.591,270.920 109.347 C 270.809 110.501,270.346 110.999,269.381 110.999 C 269.041 110.999,268.491 111.164,268.159 111.366 C 267.385 111.838,266.576 111.832,265.483 111.348 C 265.004 111.136,264.404 110.878,264.151 110.775 C 263.898 110.672,263.542 110.512,263.361 110.419 C 263.180 110.326,262.931 110.315,262.809 110.394 C 262.686 110.473,262.200 110.663,261.728 110.815 C 261.257 110.968,260.594 111.340,260.256 111.642 C 259.140 112.638,254.258 112.502,253.201 111.445 C 252.956 111.199,252.671 110.999,252.568 110.999 C 252.088 110.999,250.113 109.807,249.705 109.271 C 249.453 108.941,249.043 108.562,248.793 108.428 C 248.544 108.295,248.219 107.887,248.071 107.521 C 247.924 107.156,247.547 106.305,247.234 105.631 C 246.902 104.917,246.664 104.103,246.664 103.682 C 246.664 103.285,246.607 102.904,246.537 102.834 C 245.993 102.290,245.690 98.395,246.090 97.082 C 246.179 96.789,246.358 96.197,246.488 95.766 C 246.617 95.336,246.782 94.984,246.856 94.984 C 246.929 94.984,247.212 94.508,247.486 93.925 C 247.759 93.343,248.078 92.671,248.194 92.432 C 248.504 91.792,250.288 90.459,251.804 89.732 C 252.533 89.383,253.251 88.975,253.400 88.826 C 253.549 88.677,253.978 88.505,254.355 88.444 C 254.731 88.383,255.497 88.224,256.056 88.092 C 257.684 87.706,259.530 87.966,260.657 88.740 C 262.846 90.243,264.093 89.781,263.860 87.554 C 263.689 85.906,263.688 74.287,263.859 73.372 C 263.999 72.630,264.535 72.310,265.900 72.152 C 266.507 72.082,267.087 72.015,267.188 72.003 C 267.289 71.991,267.907 72.059,268.561 72.153 M301.806 72.452 C 302.764 72.907,302.862 74.464,302.763 87.713 C 302.737 91.256,302.746 97.150,302.784 100.809 C 302.878 109.799,302.674 110.653,300.238 111.502 C 299.043 111.918,297.008 111.752,296.549 111.201 C 296.050 110.603,294.963 110.332,294.340 110.651 C 293.985 110.833,293.563 110.985,293.401 110.990 C 293.240 110.995,292.853 111.126,292.541 111.281 C 290.391 112.354,286.302 112.357,284.671 111.288 C 284.427 111.129,284.142 110.999,284.036 110.999 C 283.412 110.999,282.238 110.193,281.797 109.462 C 281.457 108.899,281.154 108.628,280.782 108.554 C 280.038 108.405,279.525 107.899,279.248 107.041 C 279.117 106.636,278.855 106.083,278.664 105.812 C 277.754 104.513,277.597 103.841,277.596 101.243 C 277.596 97.945,278.035 95.497,278.791 94.583 C 279.015 94.313,279.353 93.662,279.541 93.139 C 279.856 92.262,280.568 91.486,281.056 91.486 C 281.161 91.486,281.479 91.147,281.764 90.731 C 282.393 89.816,282.844 89.568,284.399 89.281 C 285.058 89.160,285.681 88.991,285.784 88.905 C 286.882 87.998,290.445 87.784,291.826 88.541 C 292.379 88.845,292.927 89.093,293.042 89.093 C 293.158 89.093,293.596 89.259,294.015 89.462 C 295.517 90.187,295.417 90.657,295.529 82.375 C 295.639 74.314,295.731 72.870,296.150 72.618 C 297.053 72.076,300.783 71.967,301.806 72.452 M90.727 74.449 C 93.885 74.493,94.192 74.624,95.122 76.327 C 95.675 77.341,95.699 79.210,95.168 79.890 C 94.970 80.143,94.806 80.439,94.804 80.548 C 94.798 80.826,94.088 81.444,93.340 81.823 C 92.481 82.258,85.607 82.260,80.700 81.827 L 79.025 81.679 78.496 82.344 C 77.785 83.234,77.789 86.656,78.503 88.269 L 78.921 89.215 81.016 89.148 C 82.168 89.110,83.412 88.990,83.780 88.880 C 84.154 88.768,84.764 88.738,85.161 88.811 C 85.552 88.882,87.069 88.982,88.533 89.031 C 91.672 89.138,92.083 89.342,93.134 91.313 C 94.087 93.102,93.698 95.499,92.336 96.227 C 91.652 96.593,83.816 96.891,82.098 96.617 C 81.056 96.450,79.282 96.566,78.773 96.833 C 77.931 97.277,77.716 102.825,78.513 103.563 L 78.976 103.993 86.290 103.969 C 95.752 103.939,95.919 103.979,96.117 106.338 C 96.184 107.130,96.297 108.197,96.368 108.709 C 96.520 109.806,96.012 110.482,94.238 111.545 C 93.502 111.986,86.966 112.237,84.557 111.917 C 83.201 111.737,82.735 111.740,82.164 111.932 C 81.278 112.229,75.302 112.208,73.818 111.902 C 72.233 111.576,71.093 110.811,70.551 109.710 C 70.336 109.275,70.026 96.070,70.153 92.775 C 70.203 91.457,70.204 89.197,70.155 87.069 C 70.138 86.309,70.192 84.197,70.276 82.375 C 70.393 79.844,70.372 78.831,70.189 78.086 C 70.057 77.549,69.949 77.048,69.949 76.971 C 69.949 76.730,71.113 75.558,71.958 74.949 L 72.770 74.364 75.548 74.435 C 77.075 74.474,79.775 74.444,81.546 74.369 C 83.318 74.294,85.544 74.273,86.493 74.323 C 87.442 74.373,89.347 74.430,90.727 74.449 M209.989 75.252 C 210.803 76.089,211.001 76.879,210.850 78.693 C 210.730 80.128,210.696 83.374,210.726 90.382 C 210.730 91.344,210.727 94.367,210.719 97.101 C 210.711 99.834,210.740 102.941,210.783 104.004 C 210.853 105.743,210.701 108.588,210.481 109.656 C 210.390 110.099,209.636 110.999,209.355 110.999 C 209.259 110.999,208.838 111.164,208.419 111.367 C 207.117 111.996,205.016 111.788,204.016 110.930 C 203.460 110.453,203.400 109.613,203.328 101.274 C 203.264 93.883,203.202 93.367,202.519 94.464 C 202.109 95.122,201.627 95.586,201.171 95.761 C 201.015 95.821,200.745 96.189,200.572 96.578 C 200.054 97.743,199.766 98.195,199.418 98.389 C 198.920 98.667,198.645 99.057,198.443 99.771 C 198.343 100.125,197.969 100.691,197.612 101.028 C 197.255 101.365,196.963 101.787,196.963 101.966 C 196.963 102.701,195.656 104.740,195.185 104.740 C 195.049 104.740,194.938 104.853,194.938 104.990 C 194.938 105.363,193.290 107.045,192.493 107.485 C 191.218 108.189,190.908 108.077,189.749 106.489 C 189.379 105.983,188.784 105.287,188.426 104.942 C 188.069 104.598,187.637 103.931,187.468 103.459 C 187.274 102.920,186.974 102.496,186.658 102.315 C 186.383 102.157,185.894 101.567,185.571 101.004 C 185.249 100.441,184.923 99.954,184.846 99.921 C 184.495 99.772,183.718 98.488,183.479 97.663 C 183.334 97.162,183.099 96.695,182.956 96.626 C 182.814 96.556,182.490 96.403,182.237 96.286 C 181.983 96.169,181.619 95.725,181.427 95.298 L 181.077 94.524 180.913 95.536 C 180.822 96.093,180.771 98.164,180.799 100.138 C 180.963 111.728,180.972 111.700,176.900 111.507 L 174.881 111.411 174.219 110.750 L 173.558 110.088 173.468 105.619 C 173.366 100.588,173.352 96.579,173.416 90.658 C 173.440 88.431,173.448 85.324,173.435 83.755 C 173.376 76.677,173.478 75.897,174.518 75.466 C 175.585 75.025,177.698 76.674,178.592 78.647 C 178.810 79.128,179.054 79.521,179.133 79.521 C 179.410 79.521,180.013 80.315,180.512 81.340 C 180.790 81.909,181.291 82.665,181.625 83.019 C 181.960 83.373,182.374 83.994,182.544 84.399 C 182.721 84.819,183.178 85.376,183.604 85.694 C 184.109 86.071,184.373 86.419,184.413 86.763 C 184.448 87.067,184.764 87.548,185.195 87.953 C 185.592 88.327,185.918 88.700,185.918 88.781 C 185.918 88.862,186.125 89.234,186.378 89.606 C 186.631 89.979,186.838 90.473,186.838 90.705 C 186.838 90.997,186.995 91.187,187.345 91.319 C 187.982 91.561,188.679 92.204,188.679 92.552 C 188.679 92.794,189.704 94.295,190.762 95.603 C 191.443 96.444,193.057 96.031,193.620 94.873 C 193.893 94.310,194.199 93.993,194.648 93.805 C 195.193 93.577,195.331 93.391,195.576 92.547 C 195.773 91.870,196.082 91.350,196.555 90.902 C 196.935 90.542,197.533 89.656,197.885 88.933 C 198.236 88.209,198.660 87.574,198.826 87.522 C 198.992 87.469,199.173 87.199,199.228 86.923 C 199.341 86.361,199.931 85.596,200.252 85.596 C 200.366 85.596,200.460 85.513,200.460 85.412 C 200.460 85.311,200.626 85.228,200.828 85.228 C 201.056 85.228,201.197 85.105,201.197 84.906 C 201.198 84.511,201.785 83.526,202.413 82.866 C 203.065 82.180,203.882 80.982,204.039 80.482 C 204.111 80.251,204.369 79.863,204.612 79.620 C 204.855 79.377,205.242 78.847,205.472 78.442 C 205.702 78.036,206.595 76.963,207.455 76.057 C 209.136 74.286,209.070 74.307,209.989 75.252 M162.356 79.529 C 163.999 79.892,164.338 80.257,164.746 82.098 C 165.092 83.656,164.137 85.581,162.737 86.149 C 161.445 86.672,158.797 86.327,158.167 85.553 C 157.761 85.054,157.202 83.911,157.202 83.581 C 157.202 83.390,157.107 83.202,156.992 83.163 C 156.834 83.111,156.834 82.995,156.992 82.700 C 157.107 82.484,157.202 82.045,157.202 81.725 C 157.202 79.857,159.468 78.892,162.356 79.529 M313.852 87.489 C 314.583 87.751,315.468 88.297,315.877 88.738 C 316.476 89.384,316.939 89.497,318.048 89.265 C 318.739 89.122,319.696 89.093,320.847 89.182 C 321.809 89.256,323.672 89.328,324.988 89.343 C 328.139 89.378,329.072 90.021,328.586 91.824 C 328.389 92.557,327.409 94.064,327.129 94.064 C 327.043 94.064,326.834 94.498,326.666 95.030 C 326.280 96.250,326.217 96.342,325.516 96.700 C 325.092 96.918,324.908 97.166,324.819 97.641 C 324.677 98.399,323.856 99.721,323.439 99.865 C 323.052 99.998,322.153 101.199,322.008 101.778 C 321.944 102.031,321.699 102.432,321.463 102.667 C 321.228 102.903,320.985 103.321,320.925 103.596 C 320.865 103.871,320.745 104.322,320.658 104.598 C 320.428 105.329,320.553 105.355,324.182 105.309 C 327.934 105.262,328.407 105.382,329.207 106.590 C 329.825 107.525,329.881 109.353,329.314 110.078 C 329.116 110.331,328.953 110.609,328.950 110.695 C 328.948 110.781,328.648 111.150,328.283 111.514 L 327.621 112.177 324.832 112.140 C 323.298 112.120,321.360 112.007,320.525 111.889 C 319.371 111.727,318.709 111.727,317.764 111.890 C 315.553 112.272,310.786 112.218,310.331 111.806 C 308.977 110.580,309.216 108.160,310.873 106.305 C 311.445 105.665,311.827 105.025,311.827 104.707 C 311.827 104.410,312.756 103.451,313.043 103.451 C 313.168 103.451,313.404 103.049,313.567 102.557 C 313.730 102.066,314.117 101.382,314.427 101.039 C 314.737 100.695,315.242 99.917,315.551 99.310 C 315.859 98.702,316.287 98.062,316.500 97.887 C 316.714 97.711,316.986 97.487,317.104 97.387 C 317.544 97.018,317.157 96.501,316.274 96.280 C 314.537 95.845,314.034 95.655,313.734 95.323 C 313.565 95.137,313.273 94.984,313.085 94.984 C 311.247 94.984,309.593 92.955,309.366 90.422 C 309.175 88.285,309.660 87.648,311.509 87.608 C 311.836 87.601,312.269 87.524,312.471 87.437 C 312.977 87.219,313.113 87.224,313.852 87.489 M135.003 87.872 C 135.270 88.011,135.789 88.434,136.157 88.813 C 136.785 89.459,136.874 89.494,137.580 89.365 C 137.995 89.289,138.707 89.234,139.162 89.242 C 139.618 89.250,141.772 89.282,143.948 89.313 C 148.873 89.383,149.696 89.888,148.750 92.260 C 148.657 92.493,148.479 93.081,148.355 93.568 C 148.207 94.147,147.913 94.655,147.503 95.040 C 147.159 95.364,146.767 95.835,146.633 96.088 C 145.782 97.692,145.383 98.354,145.055 98.705 C 144.852 98.924,144.685 99.208,144.685 99.336 C 144.685 99.464,144.230 100.049,143.674 100.636 C 143.117 101.223,142.662 101.786,142.661 101.887 C 142.660 101.988,142.411 102.361,142.108 102.715 C 141.792 103.084,141.556 103.571,141.556 103.855 C 141.556 104.127,141.473 104.401,141.371 104.464 C 140.376 105.079,141.789 105.461,144.961 105.435 C 148.517 105.405,149.833 105.854,150.102 107.187 C 150.731 110.303,150.014 111.606,147.538 111.849 C 145.909 112.009,145.657 112.009,140.911 111.853 C 139.089 111.793,136.935 111.825,136.125 111.924 C 131.257 112.520,128.370 110.390,130.656 107.890 C 131.040 107.469,131.466 106.745,131.605 106.274 C 131.762 105.740,132.145 105.128,132.627 104.639 C 133.051 104.209,133.583 103.464,133.809 102.983 C 134.259 102.024,134.489 101.744,134.975 101.560 C 135.152 101.493,135.297 101.310,135.297 101.154 C 135.297 100.752,136.041 99.218,136.236 99.218 C 136.546 99.218,137.322 98.413,137.322 98.091 C 137.322 97.913,137.405 97.716,137.506 97.653 C 138.371 97.119,137.490 96.181,135.865 95.907 C 135.124 95.782,134.383 95.543,134.214 95.374 C 134.045 95.205,133.537 94.962,133.083 94.833 C 131.825 94.475,131.476 94.249,131.219 93.625 C 131.089 93.309,130.802 92.869,130.580 92.646 C 129.662 91.722,129.499 89.288,130.301 88.484 C 131.121 87.664,133.903 87.302,135.003 87.872 M115.509 88.208 C 116.525 88.361,117.235 88.590,117.799 88.946 C 118.250 89.229,118.735 89.462,118.879 89.462 C 119.331 89.462,120.524 90.227,120.761 90.669 C 120.886 90.903,121.205 91.184,121.470 91.294 C 122.513 91.726,124.001 93.392,124.453 94.633 C 125.304 96.971,124.928 99.954,123.783 99.954 C 123.661 99.954,123.116 100.150,122.572 100.389 C 122.028 100.629,121.009 100.924,120.307 101.045 C 119.606 101.166,118.819 101.411,118.558 101.590 C 118.038 101.949,116.364 102.618,115.526 102.803 C 115.233 102.867,114.772 103.156,114.503 103.444 C 114.234 103.731,113.629 104.212,113.157 104.511 L 112.299 105.055 112.762 105.265 C 113.950 105.807,116.337 105.348,116.337 104.578 C 116.337 104.263,117.250 104.010,117.729 104.192 C 117.989 104.291,118.444 104.372,118.740 104.372 C 119.472 104.372,120.446 105.708,120.743 107.119 C 120.862 107.684,121.036 108.390,121.131 108.688 C 121.225 108.987,121.241 109.277,121.166 109.332 C 121.092 109.388,120.921 109.646,120.788 109.905 C 120.655 110.164,120.241 110.525,119.868 110.707 C 119.495 110.890,119.066 111.112,118.914 111.201 C 117.383 112.099,117.432 112.090,113.955 112.112 L 110.613 112.133 110.115 111.573 C 109.564 110.953,108.856 110.630,108.048 110.630 C 107.271 110.630,106.359 110.129,105.936 109.470 C 105.734 109.154,105.278 108.701,104.924 108.463 C 104.491 108.173,104.082 107.621,103.676 106.782 C 103.344 106.095,102.884 105.432,102.655 105.309 C 101.303 104.585,101.345 96.766,102.707 95.536 C 102.876 95.384,103.197 94.802,103.421 94.243 C 103.815 93.260,104.540 92.223,104.833 92.223 C 104.911 92.223,105.481 91.786,106.100 91.253 C 106.719 90.720,107.432 90.189,107.685 90.073 C 107.938 89.957,108.850 89.537,109.710 89.140 C 112.428 87.885,112.881 87.813,115.509 88.208 M233.089 88.668 C 233.860 89.081,234.894 89.455,235.272 89.459 C 235.675 89.463,237.460 90.214,237.460 90.379 C 237.460 90.452,237.688 90.753,237.966 91.049 C 238.244 91.345,238.699 91.888,238.976 92.257 C 239.252 92.626,239.585 93.038,239.715 93.173 C 239.977 93.446,240.442 94.499,240.800 95.628 C 240.928 96.033,241.148 96.504,241.289 96.674 C 241.562 97.006,241.437 98.113,241.127 98.113 C 241.033 98.113,240.957 98.258,240.957 98.435 C 240.954 99.607,238.859 100.874,236.925 100.874 C 236.735 100.874,236.178 101.206,235.688 101.611 C 235.040 102.146,234.621 102.351,234.150 102.362 C 233.069 102.386,231.668 102.938,231.617 103.359 C 231.496 104.372,233.019 104.807,234.515 104.187 C 235.172 103.915,235.058 103.844,236.190 105.237 C 237.514 106.868,237.844 109.170,236.870 109.990 C 235.225 111.373,231.933 112.477,230.097 112.259 C 229.540 112.193,228.629 112.130,228.072 112.119 C 227.058 112.098,225.942 111.804,225.470 111.434 C 225.332 111.326,224.835 111.050,224.367 110.820 C 223.898 110.591,223.182 110.103,222.774 109.735 C 222.073 109.102,221.819 108.922,220.855 108.376 C 220.170 107.987,219.831 107.462,219.411 106.136 C 219.188 105.435,218.804 104.659,218.557 104.412 C 217.895 103.750,217.728 103.163,217.726 101.484 C 217.721 98.196,217.967 96.973,218.798 96.142 C 219.037 95.903,219.281 95.482,219.340 95.208 C 219.490 94.509,220.003 93.327,220.156 93.327 C 220.226 93.327,220.773 92.864,221.371 92.297 C 223.499 90.281,224.524 89.462,224.919 89.462 C 225.027 89.462,225.569 89.254,226.123 89.001 C 228.091 88.101,231.706 87.928,233.089 88.668 M163.632 89.909 C 164.451 90.780,164.584 92.215,164.586 100.241 C 164.589 111.581,164.533 111.759,160.967 111.568 C 157.857 111.401,157.202 110.680,157.202 107.422 C 157.202 106.465,157.123 105.633,157.026 105.574 C 156.921 105.509,156.890 104.490,156.949 103.032 C 157.002 101.693,157.102 98.527,157.170 95.996 C 157.339 89.716,157.464 89.533,161.634 89.481 C 163.080 89.463,163.248 89.499,163.632 89.909 M112.117 94.882 C 111.610 95.018,111.199 95.269,111.025 95.548 C 110.872 95.795,110.503 96.260,110.205 96.581 C 109.062 97.816,110.281 99.314,111.693 98.410 C 112.313 98.012,113.591 97.568,114.889 97.297 C 115.278 97.216,115.400 97.058,115.500 96.504 C 115.569 96.124,115.667 95.641,115.716 95.433 C 115.899 94.670,113.994 94.379,112.117 94.882 M229.216 94.811 C 228.783 94.897,228.212 95.136,227.949 95.343 C 227.685 95.551,227.389 95.720,227.289 95.720 C 226.678 95.720,225.695 97.185,225.904 97.784 C 226.324 98.993,226.815 99.128,227.852 98.320 C 228.652 97.697,229.527 97.378,230.446 97.374 C 231.311 97.370,231.489 97.232,231.626 96.457 C 231.688 96.102,231.787 95.647,231.845 95.444 C 232.044 94.749,230.913 94.477,229.216 94.811 M257.525 94.858 C 257.171 94.971,256.687 95.294,256.450 95.576 C 256.213 95.858,255.864 96.088,255.674 96.088 C 255.194 96.088,254.680 96.694,254.381 97.612 C 254.242 98.039,253.979 98.552,253.797 98.751 C 253.419 99.164,253.506 100.832,253.963 101.927 C 254.099 102.253,254.211 102.673,254.211 102.861 C 254.211 103.315,254.903 103.945,255.691 104.210 C 256.041 104.327,256.509 104.587,256.731 104.787 C 257.363 105.358,260.255 105.351,260.971 104.777 C 261.252 104.551,261.689 104.278,261.942 104.169 C 263.284 103.593,263.317 103.558,263.535 102.526 C 264.117 99.765,263.690 97.024,262.589 96.458 C 262.179 96.247,261.682 95.835,261.485 95.541 C 260.919 94.699,259.042 94.375,257.525 94.858 M288.558 94.932 C 288.115 95.046,286.056 97.128,286.056 97.464 C 286.056 97.602,285.808 97.824,285.504 97.959 C 285.200 98.093,284.952 98.344,284.952 98.515 C 284.952 98.687,284.875 98.875,284.781 98.933 C 284.677 98.998,284.677 99.268,284.781 99.633 C 284.875 99.960,284.952 100.449,284.952 100.720 C 284.952 100.990,285.024 101.239,285.112 101.273 C 285.201 101.307,285.495 101.749,285.766 102.255 C 286.486 103.600,287.037 104.357,287.303 104.365 C 287.431 104.369,287.866 104.590,288.268 104.856 C 289.061 105.380,291.682 105.446,292.174 104.954 C 292.292 104.836,292.504 104.740,292.646 104.740 C 292.788 104.740,293.134 104.493,293.416 104.191 C 293.698 103.890,294.141 103.562,294.401 103.463 C 295.206 103.157,295.518 102.289,295.505 100.391 C 295.485 97.635,295.347 97.068,294.613 96.719 C 293.951 96.405,293.648 96.110,293.330 95.473 C 293.051 94.913,289.991 94.566,288.558 94.932 M231.250 95.368 C 231.174 95.659,231.113 95.692,230.994 95.506 C 230.768 95.148,230.798 94.984,231.092 94.984 C 231.264 94.984,231.317 95.113,231.250 95.368 "
            stroke="none" fill="#20a1de" fill-rule="evenodd"></path>
        <path id="path1"
            d="M360.764 28.253 C 360.708 28.308,324.751 28.352,280.858 28.349 C 208.102 28.346,201.043 28.371,200.941 28.638 C 200.879 28.799,200.828 29.949,200.828 31.194 C 200.828 33.588,200.870 33.713,201.749 33.932 C 202.002 33.995,237.153 34.051,279.862 34.056 C 364.759 34.065,358.277 33.980,359.240 35.101 C 360.365 36.409,360.437 36.780,360.315 40.589 C 360.254 42.513,360.205 48.684,360.206 54.303 C 360.211 70.314,360.172 141.305,360.157 144.685 C 360.141 148.349,359.719 149.344,357.886 150.044 C 357.422 150.221,257.017 150.276,218.132 150.120 C 204.769 150.067,201.267 150.171,200.976 150.628 C 200.775 150.944,200.799 155.214,201.003 155.537 C 201.151 155.770,211.116 155.809,278.727 155.840 C 321.382 155.860,356.530 155.898,356.834 155.924 C 358.021 156.027,364.233 155.663,364.841 155.454 C 365.832 155.115,365.802 157.029,365.870 90.889 L 365.934 29.085 365.526 28.828 C 365.290 28.680,364.308 28.517,363.202 28.443 C 362.148 28.372,361.191 28.278,361.075 28.233 C 360.959 28.189,360.819 28.198,360.764 28.253 "
            stroke="none" fill="#060c1a" fill-rule="evenodd"></path>
        <path id="path2"
            d="M34.434 28.549 L 33.906 29.054 33.866 32.796 C 33.844 34.855,33.836 37.740,33.848 39.208 C 33.860 40.676,33.849 43.866,33.824 46.295 C 33.765 51.942,33.849 151.626,33.914 153.684 C 33.983 155.879,34.147 155.987,37.520 156.059 C 43.466 156.187,198.970 156.176,199.098 156.049 C 199.363 155.783,199.551 151.276,199.323 150.646 C 199.013 149.789,203.632 149.838,120.206 149.816 L 43.008 149.795 42.119 149.248 C 41.571 148.911,41.043 148.383,40.746 147.877 L 40.263 147.053 40.277 92.040 L 40.291 37.027 40.697 36.231 C 41.391 34.867,42.737 33.935,43.560 34.248 C 44.048 34.434,198.360 34.510,198.843 34.325 C 199.515 34.067,199.794 30.598,199.294 28.724 L 199.098 27.988 120.948 27.993 C 77.965 27.995,41.469 28.064,39.844 28.145 C 38.220 28.225,36.457 28.236,35.926 28.168 C 35.042 28.054,34.918 28.086,34.434 28.549 M266.202 74.480 L 265.444 75.144 265.449 78.419 C 265.452 80.256,265.363 82.055,265.247 82.517 C 264.996 83.512,265.102 85.317,265.537 87.463 C 266.174 90.604,264.615 92.402,262.295 91.202 C 259.228 89.616,256.087 89.559,253.166 91.037 C 252.278 91.487,251.443 91.855,251.310 91.855 C 250.867 91.855,250.146 92.454,249.561 93.309 C 249.243 93.775,248.877 94.263,248.748 94.394 C 248.093 95.062,247.304 100.744,247.751 101.580 C 247.868 101.797,248.014 102.660,248.075 103.496 C 248.196 105.127,248.437 105.781,249.211 106.576 C 249.480 106.853,249.920 107.323,250.187 107.620 C 253.002 110.756,259.349 111.459,261.988 108.928 C 262.849 108.103,263.262 108.072,264.345 108.751 C 265.578 109.525,266.823 109.855,268.135 109.755 C 269.917 109.619,269.755 111.041,269.746 95.536 C 269.732 72.826,269.844 74.369,268.195 74.015 C 266.956 73.749,267.063 73.724,266.202 74.480 M297.791 74.363 L 296.917 74.920 296.904 76.346 C 296.896 77.131,296.823 78.518,296.741 79.429 C 296.654 80.403,296.665 81.511,296.769 82.116 C 296.882 82.774,296.882 83.505,296.769 84.141 C 296.668 84.715,296.652 85.949,296.733 87.057 C 296.813 88.154,296.801 89.220,296.704 89.542 C 296.235 91.103,296.097 91.419,295.757 91.717 C 295.159 92.239,294.426 92.025,293.582 91.083 C 293.374 90.851,293.012 90.748,292.385 90.742 C 291.891 90.738,290.923 90.541,290.234 90.304 C 288.856 89.831,289.143 89.808,285.419 90.686 C 283.758 91.078,283.126 91.310,282.847 91.631 C 282.643 91.865,282.126 92.278,281.698 92.549 C 281.270 92.820,280.842 93.209,280.746 93.414 C 279.820 95.394,279.617 96.122,279.484 97.929 C 279.435 98.587,279.328 99.208,279.246 99.310 C 278.657 100.037,278.664 101.976,279.259 102.807 C 279.332 102.908,279.569 103.613,279.787 104.372 C 280.153 105.649,280.370 106.253,280.709 106.942 C 280.782 107.090,281.108 107.360,281.434 107.542 C 282.126 107.929,282.927 108.690,282.927 108.962 C 282.927 109.066,283.155 109.205,283.433 109.272 C 283.711 109.338,284.022 109.456,284.123 109.534 C 284.225 109.612,285.053 109.814,285.964 109.983 C 286.875 110.153,287.955 110.354,288.364 110.430 C 288.773 110.507,289.229 110.508,289.377 110.433 C 290.010 110.111,291.680 109.710,292.389 109.710 C 293.028 109.710,293.296 109.585,293.971 108.974 C 294.956 108.083,295.090 108.074,295.926 108.836 C 296.286 109.165,296.693 109.497,296.830 109.575 C 297.271 109.825,299.823 109.823,300.074 109.572 C 300.200 109.445,300.455 109.342,300.640 109.342 C 301.308 109.342,301.874 104.858,301.521 102.361 C 301.430 101.722,301.353 95.299,301.350 88.086 C 301.342 73.573,301.405 74.548,300.457 74.212 C 299.142 73.745,298.723 73.768,297.791 74.363 M78.371 76.148 C 74.820 76.189,72.711 76.281,72.711 76.395 C 72.711 76.495,72.588 76.576,72.438 76.576 C 71.936 76.576,71.882 77.547,71.926 85.780 C 71.950 90.285,71.959 94.841,71.947 95.904 C 71.906 99.303,71.909 99.962,71.988 104.511 L 72.066 108.975 72.586 109.421 C 73.352 110.080,75.347 110.198,84.491 110.125 C 86.668 110.108,88.698 110.097,89.001 110.102 C 93.915 110.172,95.282 109.384,94.234 107.086 C 93.872 106.290,91.350 105.597,89.001 105.649 C 88.698 105.655,87.073 105.709,85.390 105.768 C 83.635 105.830,82.059 105.800,81.692 105.699 C 81.285 105.586,80.682 105.586,80.033 105.698 C 78.939 105.886,77.600 105.418,76.944 104.617 C 75.812 103.234,75.926 97.699,77.113 96.394 C 78.063 95.349,78.159 95.335,83.900 95.340 C 90.819 95.346,91.063 95.318,91.431 94.455 C 91.587 94.088,91.787 93.645,91.875 93.470 C 92.030 93.164,91.978 92.964,91.373 91.560 C 91.059 90.832,90.270 90.750,83.540 90.750 C 76.810 90.750,76.208 90.275,76.208 84.965 C 76.208 80.367,76.816 80.005,84.173 80.221 C 87.031 80.305,89.701 80.310,90.106 80.232 C 90.511 80.154,91.381 80.083,92.039 80.076 C 93.101 80.064,93.274 80.009,93.577 79.593 C 94.011 78.998,93.863 76.969,93.353 76.507 C 92.976 76.167,87.706 76.040,78.371 76.148 M174.841 80.764 C 174.784 89.343,174.807 104.589,174.879 106.397 C 174.922 107.460,174.892 108.511,174.814 108.733 C 174.508 109.598,177.239 110.168,178.768 109.559 C 179.354 109.326,179.630 107.356,179.483 104.464 C 179.371 102.271,179.409 98.374,179.569 95.580 C 179.706 93.189,179.982 92.591,180.951 92.591 C 181.575 92.591,184.424 96.098,184.439 96.885 C 184.443 97.070,184.777 97.560,185.182 97.973 C 185.587 98.386,185.918 98.797,185.918 98.887 C 185.918 99.077,186.008 99.193,187.103 100.414 C 187.557 100.920,188.113 101.790,188.339 102.347 C 188.738 103.331,188.959 103.615,189.771 104.186 C 189.986 104.336,190.360 104.761,190.604 105.129 L 191.046 105.797 191.981 105.555 C 193.193 105.240,193.159 105.267,193.732 104.171 C 194.003 103.654,194.535 102.929,194.916 102.559 C 195.297 102.189,195.809 101.457,196.055 100.932 C 196.301 100.406,196.649 99.937,196.828 99.890 C 197.007 99.842,197.314 99.439,197.510 98.995 C 197.904 98.106,198.379 97.498,198.804 97.341 C 198.956 97.285,199.196 96.918,199.337 96.526 C 199.478 96.133,199.789 95.524,200.027 95.171 C 200.265 94.819,200.460 94.462,200.460 94.379 C 200.460 93.974,201.996 92.034,202.528 91.768 L 203.129 91.467 203.830 92.217 L 204.531 92.968 204.544 95.494 C 204.552 96.884,204.531 98.891,204.497 99.954 C 204.341 104.984,204.541 109.190,204.952 109.492 C 205.322 109.765,207.011 110.096,207.374 109.967 C 207.570 109.897,208.085 109.683,208.518 109.492 L 209.305 109.144 209.230 97.232 C 209.188 90.680,209.150 85.237,209.145 85.136 C 209.139 85.035,209.179 83.271,209.232 81.216 C 209.340 77.072,209.277 76.551,208.778 77.480 C 208.496 78.006,208.106 78.307,207.087 78.786 C 206.935 78.857,206.645 79.238,206.443 79.633 C 206.240 80.027,206.012 80.377,205.936 80.411 C 205.861 80.445,205.798 80.557,205.798 80.659 C 205.798 80.762,205.571 81.066,205.292 81.334 C 205.014 81.603,204.662 82.066,204.510 82.365 C 204.358 82.663,203.799 83.367,203.269 83.929 C 202.738 84.492,202.303 85.057,202.302 85.185 C 202.302 85.313,201.925 85.779,201.464 86.220 C 201.004 86.661,200.338 87.591,199.985 88.287 C 199.228 89.775,197.792 91.874,197.361 92.118 C 196.871 92.397,196.423 93.023,196.417 93.438 C 196.411 93.823,195.819 94.589,195.280 94.909 C 195.125 95.001,194.727 95.589,194.396 96.216 C 193.609 97.705,193.309 97.952,192.040 98.151 L 190.980 98.318 190.428 97.677 C 188.721 95.695,188.327 95.162,187.853 94.185 C 187.566 93.594,187.088 92.931,186.790 92.713 C 186.492 92.494,186.043 91.911,185.792 91.417 C 185.541 90.923,185.156 90.339,184.937 90.118 C 184.717 89.898,184.210 89.183,183.810 88.531 C 183.410 87.878,182.851 87.096,182.568 86.792 C 182.285 86.489,181.927 85.975,181.772 85.651 C 181.618 85.327,181.296 84.829,181.057 84.545 C 180.818 84.261,180.393 83.618,180.113 83.116 C 179.832 82.613,179.306 81.894,178.943 81.518 C 178.580 81.142,178.034 80.353,177.729 79.765 C 177.384 79.099,177.035 78.670,176.806 78.627 C 176.140 78.502,175.426 77.864,175.426 77.392 C 175.426 77.114,175.320 76.944,175.146 76.944 C 174.905 76.944,174.862 77.480,174.841 80.764 M160.239 80.880 C 158.364 81.594,157.849 83.566,159.325 84.384 C 159.523 84.494,159.906 84.728,160.175 84.906 C 160.945 85.413,161.283 85.301,162.401 84.169 L 163.447 83.111 162.986 82.095 C 162.393 80.785,161.512 80.396,160.239 80.880 M132.539 88.674 C 132.090 88.856,131.799 89.228,131.799 89.621 C 131.799 89.824,131.716 90.210,131.614 90.478 C 131.461 90.880,131.524 91.168,131.972 92.101 C 132.695 93.609,132.937 93.729,135.572 93.889 C 140.203 94.171,140.907 94.761,139.511 97.193 C 138.507 98.942,137.816 99.930,137.365 100.263 C 137.066 100.483,136.637 101.022,136.412 101.459 C 136.188 101.897,135.762 102.561,135.466 102.934 C 135.171 103.308,134.929 103.695,134.929 103.793 C 134.929 103.892,134.866 104.001,134.790 104.034 C 134.713 104.068,134.370 104.655,134.026 105.338 C 133.682 106.022,133.343 106.581,133.273 106.581 C 132.940 106.581,131.789 109.174,132.023 109.395 C 132.729 110.061,133.217 110.138,135.983 110.019 C 142.447 109.742,143.263 109.729,144.147 109.897 C 145.244 110.105,147.256 109.869,148.140 109.428 L 148.732 109.132 148.203 108.178 C 147.405 106.742,146.407 106.537,142.740 107.059 C 141.652 107.213,140.492 106.839,139.777 106.102 C 139.045 105.348,139.052 105.432,139.619 104.280 C 139.868 103.774,140.074 103.226,140.077 103.063 C 140.080 102.900,140.402 102.403,140.792 101.959 C 141.182 101.514,141.641 100.879,141.812 100.546 C 141.983 100.214,142.354 99.717,142.635 99.442 C 143.242 98.849,144.219 97.437,144.381 96.917 C 144.445 96.714,144.697 96.333,144.941 96.069 C 145.186 95.806,145.556 95.257,145.763 94.851 C 145.970 94.445,146.348 93.865,146.602 93.563 C 147.107 92.963,147.570 91.524,147.401 91.082 C 147.284 90.779,145.020 90.451,144.646 90.682 C 144.532 90.753,142.734 90.798,140.650 90.784 C 136.274 90.754,135.291 90.540,134.274 89.397 C 133.689 88.740,133.041 88.470,132.539 88.674 M311.610 88.944 C 310.077 89.352,310.131 91.017,311.728 92.615 L 312.917 93.804 315.607 94.027 C 319.311 94.333,319.679 94.547,319.167 96.093 C 318.983 96.647,318.830 97.246,318.827 97.423 C 318.824 97.600,318.739 97.745,318.638 97.745 C 318.537 97.745,318.454 97.856,318.454 97.991 C 318.454 98.127,318.127 98.580,317.729 99.000 C 317.330 99.419,316.706 100.270,316.342 100.891 C 315.978 101.511,315.435 102.265,315.134 102.565 C 314.834 102.866,314.588 103.262,314.588 103.447 C 314.588 103.757,313.455 104.924,313.154 104.924 C 313.081 104.924,312.903 105.193,312.758 105.522 C 311.824 107.646,311.399 108.507,311.176 108.730 C 310.163 109.743,312.259 110.350,315.805 110.069 C 319.578 109.771,319.082 109.779,323.307 109.952 C 327.869 110.139,328.497 109.795,327.584 107.610 C 327.201 106.693,327.141 106.681,322.951 106.677 C 318.811 106.673,318.811 106.673,318.299 105.715 C 317.991 105.140,318.011 105.084,318.819 104.191 C 319.222 103.746,319.685 102.981,319.847 102.493 C 320.117 101.680,321.276 100.129,322.780 98.567 C 323.413 97.909,323.792 97.306,323.792 96.956 C 323.792 96.482,324.255 95.743,324.727 95.465 C 325.252 95.155,325.769 93.593,325.860 92.039 L 325.909 91.210 325.081 90.988 C 324.568 90.851,322.820 90.763,320.491 90.758 C 315.993 90.749,314.954 90.542,313.820 89.431 C 313.068 88.694,312.784 88.631,311.610 88.944 M113.576 90.014 C 113.323 90.095,112.691 90.169,112.172 90.180 C 111.328 90.196,109.684 90.853,109.342 91.312 C 109.291 91.379,108.711 91.619,108.053 91.844 C 107.276 92.109,106.675 92.457,106.338 92.836 C 106.053 93.157,105.531 93.716,105.179 94.078 C 103.688 95.611,102.607 100.331,103.377 101.947 C 103.691 102.606,103.895 103.380,104.124 104.786 C 104.186 105.166,104.288 105.476,104.351 105.476 C 104.414 105.476,104.568 105.704,104.692 105.983 C 104.945 106.548,105.722 107.501,105.930 107.501 C 106.004 107.501,106.285 107.732,106.553 108.014 C 107.347 108.850,108.083 109.277,109.158 109.526 C 109.715 109.655,110.543 109.894,110.999 110.057 C 112.123 110.461,116.217 110.430,117.533 110.009 C 118.040 109.847,118.627 109.713,118.839 109.712 C 119.767 109.707,120.035 107.661,119.242 106.638 C 119.005 106.333,117.132 106.125,116.644 106.351 C 115.246 106.996,114.153 107.119,112.839 106.781 C 112.485 106.689,111.881 106.561,111.497 106.496 C 110.843 106.385,109.710 105.483,109.710 105.074 C 109.710 104.074,111.156 102.664,112.614 102.242 C 113.194 102.074,113.858 101.863,114.091 101.774 C 114.323 101.684,114.703 101.611,114.936 101.611 C 115.183 101.611,115.720 101.268,116.235 100.782 C 116.984 100.075,117.223 99.954,117.875 99.954 C 119.129 99.954,121.111 99.458,121.874 98.954 C 122.266 98.694,122.658 98.481,122.744 98.481 C 123.931 98.481,123.911 95.378,122.719 94.673 C 122.580 94.591,122.263 94.113,122.015 93.611 C 121.653 92.879,121.380 92.605,120.635 92.230 C 120.124 91.973,119.438 91.535,119.111 91.256 C 118.785 90.978,118.375 90.750,118.200 90.750 C 118.026 90.750,117.795 90.662,117.688 90.555 C 117.219 90.086,114.477 89.725,113.576 90.014 M227.980 90.197 C 226.689 90.417,225.090 91.047,224.737 91.474 C 224.573 91.673,224.038 92.026,223.547 92.259 C 222.999 92.519,222.546 92.893,222.372 93.228 C 222.217 93.527,221.790 94.066,221.423 94.424 C 220.794 95.040,219.788 97.564,219.788 98.527 C 219.788 98.693,219.705 98.879,219.604 98.942 C 219.360 99.092,219.369 100.912,219.618 101.865 C 219.727 102.282,219.943 103.120,220.097 103.728 C 220.660 105.936,221.707 107.428,223.189 108.131 C 223.525 108.290,224.078 108.692,224.418 109.023 C 225.176 109.763,226.169 110.070,228.440 110.267 C 229.402 110.351,230.381 110.477,230.615 110.549 C 230.849 110.621,231.222 110.596,231.443 110.493 C 232.427 110.036,233.378 109.728,234.123 109.626 C 235.553 109.428,235.670 109.292,235.584 107.931 C 235.475 106.225,235.748 106.294,230.685 106.694 C 228.445 106.872,226.047 105.982,226.047 104.973 C 226.047 104.498,226.617 102.726,226.808 102.608 C 227.004 102.486,229.953 101.703,231.661 101.319 C 231.965 101.250,232.338 101.091,232.490 100.965 C 232.894 100.629,234.506 99.954,234.903 99.954 C 235.267 99.954,236.537 99.679,237.704 99.349 C 238.955 98.995,240.263 97.419,239.896 96.710 C 239.798 96.520,239.660 96.049,239.591 95.664 C 239.513 95.235,239.234 94.736,238.869 94.376 C 238.541 94.052,238.160 93.561,238.021 93.284 C 237.655 92.554,237.146 92.059,236.626 91.929 C 236.376 91.866,236.171 91.752,236.171 91.676 C 236.171 90.844,230.351 89.793,227.980 90.197 M160.027 91.144 C 158.594 91.680,158.492 92.057,158.502 96.778 C 158.506 98.879,158.507 100.805,158.505 101.058 C 158.500 101.546,158.577 105.229,158.638 107.435 C 158.682 109.006,158.948 109.415,160.162 109.774 C 162.262 110.395,163.261 108.787,163.035 105.155 C 162.973 104.167,163.012 101.496,163.122 99.218 C 163.337 94.765,163.269 94.036,162.482 92.407 C 161.744 90.878,161.320 90.660,160.027 91.144 M115.877 93.656 C 118.809 94.892,118.809 98.481,115.877 98.481 C 115.291 98.481,114.199 98.886,113.944 99.197 C 112.795 100.600,108.554 100.772,107.843 99.445 C 107.178 98.203,109.279 94.300,110.890 93.784 C 112.595 93.237,113.029 93.164,114.036 93.251 C 114.643 93.303,115.472 93.486,115.877 93.656 M231.845 93.641 C 233.459 94.140,233.898 94.601,234.042 95.947 C 234.228 97.685,233.794 98.197,231.661 98.750 C 231.054 98.908,230.529 99.118,230.496 99.218 C 230.367 99.601,227.447 100.435,225.142 100.747 C 224.579 100.823,223.851 99.389,223.844 98.191 L 223.838 97.073 225.164 95.706 C 227.486 93.312,229.136 92.802,231.845 93.641 M260.131 93.409 C 262.024 93.811,262.217 93.942,264.429 96.346 C 264.738 96.682,265.071 97.550,265.071 98.019 C 265.071 98.261,265.142 98.504,265.229 98.557 C 265.663 98.825,265.642 101.054,265.198 101.845 C 264.957 102.273,264.649 102.985,264.511 103.426 C 263.471 106.782,258.403 108.082,255.320 105.785 C 253.779 104.636,253.655 104.515,253.272 103.774 C 253.075 103.394,252.844 103.083,252.757 103.083 C 252.047 103.083,251.818 98.898,252.463 97.717 C 254.057 94.797,255.479 93.583,257.616 93.318 C 258.122 93.255,258.619 93.191,258.721 93.176 C 258.822 93.162,259.457 93.267,260.131 93.409 M291.648 93.420 C 295.442 93.739,297.808 98.138,296.448 102.341 C 296.177 103.176,295.807 103.996,295.626 104.162 C 295.445 104.328,295.061 104.678,294.772 104.939 C 294.484 105.201,294.128 105.592,293.981 105.808 C 293.479 106.549,289.072 107.510,288.728 106.954 C 288.667 106.855,288.310 106.640,287.935 106.475 C 286.567 105.874,286.410 105.767,285.933 105.121 C 285.666 104.760,285.189 104.215,284.873 103.912 C 283.029 102.140,283.217 97.839,285.221 95.942 C 285.680 95.507,286.056 95.067,286.056 94.963 C 286.056 94.360,288.708 93.117,289.738 93.237 C 290.092 93.279,290.952 93.361,291.648 93.420 "
            stroke="none" fill="#d3f4f7" fill-rule="evenodd"></path>
        <path id="path3"
            d="M42.430 26.157 C 42.126 26.255,40.214 26.353,38.182 26.375 L 34.486 26.415 33.442 27.203 C 31.944 28.334,31.794 28.789,31.943 31.753 C 32.009 33.069,31.974 35.306,31.866 36.723 C 31.715 38.690,31.724 39.976,31.906 42.154 C 32.044 43.802,32.092 45.706,32.019 46.664 C 31.925 47.921,31.714 122.748,31.786 129.959 C 31.793 130.718,31.821 136.723,31.847 143.304 C 31.898 156.212,31.886 156.057,32.867 156.503 C 33.115 156.616,33.318 156.778,33.318 156.863 C 33.318 156.948,33.484 157.018,33.686 157.018 C 33.889 157.018,34.054 157.082,34.054 157.159 C 34.054 157.716,35.012 157.872,36.965 157.634 C 38.833 157.407,38.988 157.415,40.027 157.784 C 41.056 158.149,41.318 158.163,44.353 158.021 C 47.839 157.858,51.108 157.833,55.039 157.939 C 56.406 157.976,88.339 158.003,126.001 157.999 C 163.663 157.996,195.513 158.001,196.779 158.012 C 200.005 158.038,199.921 158.169,199.992 152.997 C 200.065 147.671,200.113 147.749,196.814 147.832 C 195.732 147.859,165.481 147.886,129.590 147.892 C 93.700 147.898,62.140 147.904,59.457 147.905 C 44.103 147.909,42.338 147.771,42.338 146.559 C 42.338 146.259,42.204 145.321,42.040 144.475 C 41.804 143.250,41.769 142.372,41.872 140.175 C 41.943 138.656,41.999 137.289,41.996 137.138 C 41.987 136.702,42.035 60.547,42.049 52.462 C 42.056 48.463,42.028 44.611,41.988 43.902 C 41.843 41.395,42.277 37.004,42.705 36.632 C 43.066 36.319,46.577 36.304,121.167 36.285 L 199.251 36.266 199.625 35.891 C 200.185 35.331,200.179 27.568,199.618 26.812 L 199.264 26.334 121.491 26.271 C 78.716 26.237,43.553 26.157,43.350 26.094 C 43.148 26.030,42.734 26.059,42.430 26.157 M39.844 28.145 C 41.469 28.064,77.965 27.995,120.948 27.993 L 199.098 27.988 199.294 28.724 C 199.794 30.598,199.515 34.067,198.843 34.325 C 198.360 34.510,44.048 34.434,43.560 34.248 C 42.737 33.935,41.391 34.867,40.697 36.231 L 40.291 37.027 40.277 92.040 L 40.263 147.053 40.746 147.877 C 41.043 148.383,41.571 148.911,42.119 149.248 L 43.008 149.795 120.206 149.816 C 203.632 149.838,199.013 149.789,199.323 150.646 C 199.551 151.276,199.363 155.783,199.098 156.049 C 198.970 156.176,43.466 156.187,37.520 156.059 C 34.147 155.987,33.983 155.879,33.914 153.684 C 33.849 151.626,33.765 51.942,33.824 46.295 C 33.849 43.866,33.860 40.676,33.848 39.208 C 33.836 37.740,33.844 34.855,33.866 32.796 L 33.906 29.054 34.434 28.549 C 34.918 28.086,35.042 28.054,35.926 28.168 C 36.457 28.236,38.220 28.225,39.844 28.145 M265.900 72.152 C 264.535 72.310,263.999 72.630,263.859 73.372 C 263.688 74.287,263.689 85.906,263.860 87.554 C 264.093 89.781,262.846 90.243,260.657 88.740 C 259.530 87.966,257.684 87.706,256.056 88.092 C 255.497 88.224,254.731 88.383,254.355 88.444 C 253.978 88.505,253.549 88.677,253.400 88.826 C 253.251 88.975,252.533 89.383,251.804 89.732 C 250.288 90.459,248.504 91.792,248.194 92.432 C 248.078 92.671,247.759 93.343,247.486 93.925 C 247.212 94.508,246.929 94.984,246.856 94.984 C 246.782 94.984,246.617 95.336,246.488 95.766 C 246.358 96.197,246.179 96.789,246.090 97.082 C 245.690 98.395,245.993 102.290,246.537 102.834 C 246.607 102.904,246.664 103.285,246.664 103.682 C 246.664 104.103,246.902 104.917,247.234 105.631 C 247.547 106.305,247.924 107.156,248.071 107.521 C 248.219 107.887,248.544 108.295,248.793 108.428 C 249.043 108.562,249.453 108.941,249.705 109.271 C 250.113 109.807,252.088 110.999,252.568 110.999 C 252.671 110.999,252.956 111.199,253.201 111.445 C 254.258 112.502,259.140 112.638,260.256 111.642 C 260.594 111.340,261.257 110.968,261.728 110.815 C 262.200 110.663,262.686 110.473,262.809 110.394 C 262.931 110.315,263.180 110.326,263.361 110.419 C 263.542 110.512,263.898 110.672,264.151 110.775 C 264.404 110.878,265.004 111.136,265.483 111.348 C 266.576 111.832,267.385 111.838,268.159 111.366 C 268.491 111.164,269.041 110.999,269.381 110.999 C 270.346 110.999,270.809 110.501,270.920 109.347 C 270.992 108.591,271.137 108.234,271.547 107.806 C 271.885 107.453,272.035 107.143,271.959 106.961 C 271.839 106.674,271.514 105.379,271.176 103.839 C 271.027 103.158,271.056 102.926,271.363 102.381 C 271.659 101.853,271.709 101.508,271.631 100.521 C 271.578 99.855,271.499 98.647,271.455 97.837 C 271.411 97.027,271.315 96.061,271.243 95.690 C 271.157 95.251,271.214 94.661,271.404 94.005 C 271.653 93.149,271.679 92.354,271.574 88.789 C 271.505 86.476,271.474 82.831,271.504 80.689 C 271.550 77.392,271.512 76.703,271.260 76.197 C 271.069 75.814,270.962 75.128,270.962 74.289 C 270.962 72.995,270.954 72.974,270.355 72.652 C 269.831 72.370,267.732 71.940,267.188 72.003 C 267.087 72.015,266.507 72.082,265.900 72.152 M296.825 72.315 C 295.656 72.695,295.662 72.648,295.529 82.375 C 295.417 90.657,295.517 90.187,294.015 89.462 C 293.596 89.259,293.158 89.093,293.042 89.093 C 292.927 89.093,292.379 88.845,291.826 88.541 C 290.445 87.784,286.882 87.998,285.784 88.905 C 285.681 88.991,285.058 89.160,284.399 89.281 C 282.844 89.568,282.393 89.816,281.764 90.731 C 281.479 91.147,281.161 91.486,281.056 91.486 C 280.568 91.486,279.856 92.262,279.541 93.139 C 279.353 93.662,279.015 94.313,278.791 94.583 C 278.035 95.497,277.596 97.945,277.596 101.243 C 277.597 103.841,277.754 104.513,278.664 105.812 C 278.855 106.083,279.117 106.636,279.248 107.041 C 279.525 107.899,280.038 108.405,280.782 108.554 C 281.154 108.628,281.457 108.899,281.797 109.462 C 282.238 110.193,283.412 110.999,284.036 110.999 C 284.142 110.999,284.427 111.129,284.671 111.288 C 286.302 112.357,290.391 112.354,292.541 111.281 C 292.853 111.126,293.240 110.995,293.401 110.990 C 293.563 110.985,293.985 110.833,294.340 110.651 C 294.963 110.332,296.050 110.603,296.549 111.201 C 297.008 111.752,299.043 111.918,300.238 111.502 C 302.674 110.653,302.878 109.799,302.784 100.809 C 302.746 97.150,302.737 91.256,302.763 87.713 C 302.817 80.430,302.715 73.657,302.542 73.112 C 302.284 72.300,298.494 71.772,296.825 72.315 M268.195 74.015 C 269.844 74.369,269.732 72.826,269.746 95.536 C 269.755 111.041,269.917 109.619,268.135 109.755 C 266.823 109.855,265.578 109.525,264.345 108.751 C 263.262 108.072,262.849 108.103,261.988 108.928 C 259.349 111.459,253.002 110.756,250.187 107.620 C 249.920 107.323,249.480 106.853,249.211 106.576 C 248.437 105.781,248.196 105.127,248.075 103.496 C 248.014 102.660,247.868 101.797,247.751 101.580 C 247.304 100.744,248.093 95.062,248.748 94.394 C 248.877 94.263,249.243 93.775,249.561 93.309 C 250.146 92.454,250.867 91.855,251.310 91.855 C 251.443 91.855,252.278 91.487,253.166 91.037 C 256.087 89.559,259.228 89.616,262.295 91.202 C 264.615 92.402,266.174 90.604,265.537 87.463 C 265.102 85.317,264.996 83.512,265.247 82.517 C 265.363 82.055,265.452 80.256,265.449 78.419 L 265.444 75.144 266.202 74.480 C 267.063 73.724,266.956 73.749,268.195 74.015 M300.457 74.212 C 301.405 74.548,301.342 73.573,301.350 88.086 C 301.353 95.299,301.430 101.722,301.521 102.361 C 301.874 104.858,301.308 109.342,300.640 109.342 C 300.455 109.342,300.200 109.445,300.074 109.572 C 299.823 109.823,297.271 109.825,296.830 109.575 C 296.693 109.497,296.286 109.165,295.926 108.836 C 295.090 108.074,294.956 108.083,293.971 108.974 C 293.296 109.585,293.028 109.710,292.389 109.710 C 291.680 109.710,290.010 110.111,289.377 110.433 C 289.229 110.508,288.773 110.507,288.364 110.430 C 287.955 110.354,286.875 110.153,285.964 109.983 C 285.053 109.814,284.225 109.612,284.123 109.534 C 284.022 109.456,283.711 109.338,283.433 109.272 C 283.155 109.205,282.927 109.066,282.927 108.962 C 282.927 108.690,282.126 107.929,281.434 107.542 C 281.108 107.360,280.782 107.090,280.709 106.942 C 280.370 106.253,280.153 105.649,279.787 104.372 C 279.569 103.613,279.332 102.908,279.259 102.807 C 278.664 101.976,278.657 100.037,279.246 99.310 C 279.328 99.208,279.435 98.587,279.484 97.929 C 279.617 96.122,279.820 95.394,280.746 93.414 C 280.842 93.209,281.270 92.820,281.698 92.549 C 282.126 92.278,282.643 91.865,282.847 91.631 C 283.126 91.310,283.758 91.078,285.419 90.686 C 289.143 89.808,288.856 89.831,290.234 90.304 C 290.923 90.541,291.891 90.738,292.385 90.742 C 293.012 90.748,293.374 90.851,293.582 91.083 C 294.426 92.025,295.159 92.239,295.757 91.717 C 296.097 91.419,296.235 91.103,296.704 89.542 C 296.801 89.220,296.813 88.154,296.733 87.057 C 296.652 85.949,296.668 84.715,296.769 84.141 C 296.882 83.505,296.882 82.774,296.769 82.116 C 296.665 81.511,296.654 80.403,296.741 79.429 C 296.823 78.518,296.896 77.131,296.904 76.346 L 296.917 74.920 297.791 74.363 C 298.723 73.768,299.142 73.745,300.457 74.212 M81.546 74.369 C 79.775 74.444,77.075 74.474,75.548 74.435 L 72.770 74.364 71.958 74.949 C 71.113 75.558,69.949 76.730,69.949 76.971 C 69.949 77.048,70.057 77.549,70.189 78.086 C 70.372 78.831,70.393 79.844,70.276 82.375 C 70.192 84.197,70.138 86.309,70.155 87.069 C 70.204 89.197,70.203 91.457,70.153 92.775 C 70.026 96.070,70.336 109.275,70.551 109.710 C 71.093 110.811,72.233 111.576,73.818 111.902 C 75.302 112.208,81.278 112.229,82.164 111.932 C 82.735 111.740,83.201 111.737,84.557 111.917 C 86.966 112.237,93.502 111.986,94.238 111.545 C 96.012 110.482,96.520 109.806,96.368 108.709 C 96.297 108.197,96.184 107.130,96.117 106.338 C 95.919 103.979,95.752 103.939,86.290 103.969 L 78.976 103.993 78.513 103.563 C 77.716 102.825,77.931 97.277,78.773 96.833 C 79.282 96.566,81.056 96.450,82.098 96.617 C 83.816 96.891,91.652 96.593,92.336 96.227 C 93.698 95.499,94.087 93.102,93.134 91.313 C 92.083 89.342,91.672 89.138,88.533 89.031 C 87.069 88.982,85.552 88.882,85.161 88.811 C 84.764 88.738,84.154 88.768,83.780 88.880 C 83.412 88.990,82.168 89.110,81.016 89.148 L 78.921 89.215 78.503 88.269 C 77.789 86.656,77.785 83.234,78.496 82.344 L 79.025 81.679 80.700 81.827 C 85.607 82.260,92.481 82.258,93.340 81.823 C 94.088 81.444,94.798 80.826,94.804 80.548 C 94.806 80.439,94.970 80.143,95.168 79.890 C 95.699 79.210,95.675 77.341,95.122 76.327 C 94.192 74.624,93.885 74.493,90.727 74.449 C 89.347 74.430,87.442 74.373,86.493 74.323 C 85.544 74.273,83.318 74.294,81.546 74.369 M207.455 76.057 C 206.595 76.963,205.702 78.036,205.472 78.442 C 205.242 78.847,204.855 79.377,204.612 79.620 C 204.369 79.863,204.111 80.251,204.039 80.482 C 203.882 80.982,203.065 82.180,202.413 82.866 C 201.785 83.526,201.198 84.511,201.197 84.906 C 201.197 85.105,201.056 85.228,200.828 85.228 C 200.626 85.228,200.460 85.311,200.460 85.412 C 200.460 85.513,200.366 85.596,200.252 85.596 C 199.931 85.596,199.341 86.361,199.228 86.923 C 199.173 87.199,198.992 87.469,198.826 87.522 C 198.660 87.574,198.236 88.209,197.885 88.933 C 197.533 89.656,196.935 90.542,196.555 90.902 C 196.082 91.350,195.773 91.870,195.576 92.547 C 195.331 93.391,195.193 93.577,194.648 93.805 C 194.199 93.993,193.893 94.310,193.620 94.873 C 193.057 96.031,191.443 96.444,190.762 95.603 C 189.704 94.295,188.679 92.794,188.679 92.552 C 188.679 92.204,187.982 91.561,187.345 91.319 C 186.995 91.187,186.838 90.997,186.838 90.705 C 186.838 90.473,186.631 89.979,186.378 89.606 C 186.125 89.234,185.918 88.862,185.918 88.781 C 185.918 88.700,185.592 88.327,185.195 87.953 C 184.764 87.548,184.448 87.067,184.413 86.763 C 184.373 86.419,184.109 86.071,183.604 85.694 C 183.178 85.376,182.721 84.819,182.544 84.399 C 182.374 83.994,181.960 83.373,181.625 83.019 C 181.291 82.665,180.790 81.909,180.512 81.340 C 180.013 80.315,179.410 79.521,179.133 79.521 C 179.054 79.521,178.810 79.128,178.592 78.647 C 177.698 76.674,175.585 75.025,174.518 75.466 C 173.478 75.897,173.376 76.677,173.435 83.755 C 173.448 85.324,173.440 88.431,173.416 90.658 C 173.352 96.579,173.366 100.588,173.468 105.619 L 173.558 110.088 174.219 110.750 L 174.881 111.411 176.900 111.507 C 180.972 111.700,180.963 111.728,180.799 100.138 C 180.771 98.164,180.822 96.093,180.913 95.536 L 181.077 94.524 181.427 95.298 C 181.619 95.725,181.983 96.169,182.237 96.286 C 182.490 96.403,182.814 96.556,182.956 96.626 C 183.099 96.695,183.334 97.162,183.479 97.663 C 183.718 98.488,184.495 99.772,184.846 99.921 C 184.923 99.954,185.249 100.441,185.571 101.004 C 185.894 101.567,186.383 102.157,186.658 102.315 C 186.974 102.496,187.274 102.920,187.468 103.459 C 187.637 103.931,188.069 104.598,188.426 104.942 C 188.784 105.287,189.379 105.983,189.749 106.489 C 190.908 108.077,191.218 108.189,192.493 107.485 C 193.290 107.045,194.938 105.363,194.938 104.990 C 194.938 104.853,195.049 104.740,195.185 104.740 C 195.656 104.740,196.963 102.701,196.963 101.966 C 196.963 101.787,197.255 101.365,197.612 101.028 C 197.969 100.691,198.343 100.125,198.443 99.771 C 198.645 99.057,198.920 98.667,199.418 98.389 C 199.766 98.195,200.054 97.743,200.572 96.578 C 200.745 96.189,201.015 95.821,201.171 95.761 C 201.627 95.586,202.109 95.122,202.519 94.464 C 203.202 93.367,203.264 93.883,203.328 101.274 C 203.400 109.613,203.460 110.453,204.016 110.930 C 205.016 111.788,207.117 111.996,208.419 111.367 C 208.838 111.164,209.259 110.999,209.355 110.999 C 209.636 110.999,210.390 110.099,210.481 109.656 C 210.701 108.588,210.853 105.743,210.783 104.004 C 210.740 102.941,210.711 99.834,210.719 97.101 C 210.727 94.367,210.730 91.344,210.726 90.382 C 210.696 83.374,210.730 80.128,210.850 78.693 C 211.001 76.879,210.803 76.089,209.989 75.252 C 209.070 74.307,209.136 74.286,207.455 76.057 M93.353 76.507 C 93.863 76.969,94.011 78.998,93.577 79.593 C 93.274 80.009,93.101 80.064,92.039 80.076 C 91.381 80.083,90.511 80.154,90.106 80.232 C 89.701 80.310,87.031 80.305,84.173 80.221 C 76.816 80.005,76.208 80.367,76.208 84.965 C 76.208 90.275,76.810 90.750,83.540 90.750 C 90.270 90.750,91.059 90.832,91.373 91.560 C 91.978 92.964,92.030 93.164,91.875 93.470 C 91.787 93.645,91.587 94.088,91.431 94.455 C 91.063 95.318,90.819 95.346,83.900 95.340 C 78.159 95.335,78.063 95.349,77.113 96.394 C 75.926 97.699,75.812 103.234,76.944 104.617 C 77.600 105.418,78.939 105.886,80.033 105.698 C 80.682 105.586,81.285 105.586,81.692 105.699 C 82.059 105.800,83.635 105.830,85.390 105.768 C 87.073 105.709,88.698 105.655,89.001 105.649 C 91.350 105.597,93.872 106.290,94.234 107.086 C 95.282 109.384,93.915 110.172,89.001 110.102 C 88.698 110.097,86.668 110.108,84.491 110.125 C 75.347 110.198,73.352 110.080,72.586 109.421 L 72.066 108.975 71.988 104.511 C 71.909 99.962,71.906 99.303,71.947 95.904 C 71.959 94.841,71.950 90.285,71.926 85.780 C 71.882 77.547,71.936 76.576,72.438 76.576 C 72.588 76.576,72.711 76.495,72.711 76.395 C 72.711 75.933,92.839 76.042,93.353 76.507 M175.426 77.392 C 175.426 77.864,176.140 78.502,176.806 78.627 C 177.035 78.670,177.384 79.099,177.729 79.765 C 178.034 80.353,178.580 81.142,178.943 81.518 C 179.306 81.894,179.832 82.613,180.113 83.116 C 180.393 83.618,180.818 84.261,181.057 84.545 C 181.296 84.829,181.618 85.327,181.772 85.651 C 181.927 85.975,182.285 86.489,182.568 86.792 C 182.851 87.096,183.410 87.878,183.810 88.531 C 184.210 89.183,184.717 89.898,184.937 90.118 C 185.156 90.339,185.541 90.923,185.792 91.417 C 186.043 91.911,186.492 92.494,186.790 92.713 C 187.088 92.931,187.566 93.594,187.853 94.185 C 188.327 95.162,188.721 95.695,190.428 97.677 L 190.980 98.318 192.040 98.151 C 193.309 97.952,193.609 97.705,194.396 96.216 C 194.727 95.589,195.125 95.001,195.280 94.909 C 195.819 94.589,196.411 93.823,196.417 93.438 C 196.423 93.023,196.871 92.397,197.361 92.118 C 197.792 91.874,199.228 89.775,199.985 88.287 C 200.338 87.591,201.004 86.661,201.464 86.220 C 201.925 85.779,202.302 85.313,202.302 85.185 C 202.303 85.057,202.738 84.492,203.269 83.929 C 203.799 83.367,204.358 82.663,204.510 82.365 C 204.662 82.066,205.014 81.603,205.292 81.334 C 205.571 81.066,205.798 80.762,205.798 80.659 C 205.798 80.557,205.861 80.445,205.936 80.411 C 206.012 80.377,206.240 80.027,206.443 79.633 C 206.645 79.238,206.935 78.857,207.087 78.786 C 208.106 78.307,208.496 78.006,208.778 77.480 C 209.277 76.551,209.340 77.072,209.232 81.216 C 209.179 83.271,209.139 85.035,209.145 85.136 C 209.150 85.237,209.188 90.680,209.230 97.232 L 209.305 109.144 208.518 109.492 C 208.085 109.683,207.570 109.897,207.374 109.967 C 207.011 110.096,205.322 109.765,204.952 109.492 C 204.541 109.190,204.341 104.984,204.497 99.954 C 204.531 98.891,204.552 96.884,204.544 95.494 L 204.531 92.968 203.830 92.217 L 203.129 91.467 202.528 91.768 C 201.996 92.034,200.460 93.974,200.460 94.379 C 200.460 94.462,200.265 94.819,200.027 95.171 C 199.789 95.524,199.478 96.133,199.337 96.526 C 199.196 96.918,198.956 97.285,198.804 97.341 C 198.379 97.498,197.904 98.106,197.510 98.995 C 197.314 99.439,197.007 99.842,196.828 99.890 C 196.649 99.937,196.301 100.406,196.055 100.932 C 195.809 101.457,195.297 102.189,194.916 102.559 C 194.535 102.929,194.003 103.654,193.732 104.171 C 193.159 105.267,193.193 105.240,191.981 105.555 L 191.046 105.797 190.604 105.129 C 190.360 104.761,189.986 104.336,189.771 104.186 C 188.959 103.615,188.738 103.331,188.339 102.347 C 188.113 101.790,187.557 100.920,187.103 100.414 C 186.008 99.193,185.918 99.077,185.918 98.887 C 185.918 98.797,185.587 98.386,185.182 97.973 C 184.777 97.560,184.443 97.070,184.439 96.885 C 184.430 96.437,184.134 95.937,183.249 94.880 C 181.139 92.359,181.019 92.284,180.164 92.957 C 179.542 93.446,179.209 99.078,179.483 104.464 C 179.630 107.356,179.354 109.326,178.768 109.559 C 177.239 110.168,174.508 109.598,174.814 108.733 C 174.892 108.511,174.922 107.460,174.879 106.397 C 174.807 104.589,174.784 89.343,174.841 80.764 C 174.862 77.480,174.905 76.944,175.146 76.944 C 175.320 76.944,175.426 77.114,175.426 77.392 M158.562 79.688 C 157.777 80.167,157.202 81.027,157.202 81.725 C 157.202 82.045,157.107 82.484,156.992 82.700 C 156.834 82.995,156.834 83.111,156.992 83.163 C 157.107 83.202,157.202 83.390,157.202 83.581 C 157.202 83.911,157.761 85.054,158.167 85.553 C 159.096 86.695,162.674 86.670,163.706 85.514 C 164.907 84.170,165.130 82.274,164.283 80.619 C 163.694 79.468,159.929 78.855,158.562 79.688 M161.800 80.853 C 162.426 81.048,162.589 81.219,162.986 82.095 L 163.447 83.111 162.401 84.169 C 161.283 85.301,160.945 85.413,160.175 84.906 C 159.906 84.728,159.523 84.494,159.325 84.384 C 157.849 83.566,158.364 81.594,160.239 80.880 C 160.987 80.595,160.976 80.595,161.800 80.853 M312.471 87.437 C 312.269 87.524,311.836 87.601,311.509 87.608 C 309.660 87.648,309.175 88.285,309.366 90.422 C 309.593 92.955,311.247 94.984,313.085 94.984 C 313.273 94.984,313.565 95.137,313.734 95.323 C 314.034 95.655,314.537 95.845,316.274 96.280 C 317.157 96.501,317.544 97.018,317.104 97.387 C 316.986 97.487,316.714 97.711,316.500 97.887 C 316.287 98.062,315.859 98.702,315.551 99.310 C 315.242 99.917,314.737 100.695,314.427 101.039 C 314.117 101.382,313.730 102.066,313.567 102.557 C 313.404 103.049,313.168 103.451,313.043 103.451 C 312.756 103.451,311.827 104.410,311.827 104.707 C 311.827 105.025,311.445 105.665,310.873 106.305 C 309.216 108.160,308.977 110.580,310.331 111.806 C 310.786 112.218,315.553 112.272,317.764 111.890 C 318.709 111.727,319.371 111.727,320.525 111.889 C 321.360 112.007,323.298 112.120,324.832 112.140 L 327.621 112.177 328.283 111.514 C 328.648 111.150,328.948 110.781,328.950 110.695 C 328.953 110.609,329.116 110.331,329.314 110.078 C 329.881 109.353,329.825 107.525,329.207 106.590 C 328.407 105.382,327.934 105.262,324.182 105.309 C 320.553 105.355,320.428 105.329,320.658 104.598 C 320.745 104.322,320.865 103.871,320.925 103.596 C 320.985 103.321,321.228 102.903,321.463 102.667 C 321.699 102.432,321.944 102.031,322.008 101.778 C 322.153 101.199,323.052 99.998,323.439 99.865 C 323.856 99.721,324.677 98.399,324.819 97.641 C 324.908 97.166,325.092 96.918,325.516 96.700 C 326.217 96.342,326.280 96.250,326.666 95.030 C 326.834 94.498,327.043 94.064,327.129 94.064 C 327.409 94.064,328.389 92.557,328.586 91.824 C 329.072 90.021,328.139 89.378,324.988 89.343 C 323.672 89.328,321.809 89.256,320.847 89.182 C 319.696 89.093,318.739 89.122,318.048 89.265 C 316.939 89.497,316.476 89.384,315.877 88.738 C 314.946 87.733,313.271 87.093,312.471 87.437 M131.298 87.865 C 129.599 88.483,129.185 91.242,130.580 92.646 C 130.802 92.869,131.089 93.309,131.219 93.625 C 131.476 94.249,131.825 94.475,133.083 94.833 C 133.537 94.962,134.045 95.205,134.214 95.374 C 134.383 95.543,135.124 95.782,135.865 95.907 C 137.490 96.181,138.371 97.119,137.506 97.653 C 137.405 97.716,137.322 97.913,137.322 98.091 C 137.322 98.413,136.546 99.218,136.236 99.218 C 136.041 99.218,135.297 100.752,135.297 101.154 C 135.297 101.310,135.152 101.493,134.975 101.560 C 134.489 101.744,134.259 102.024,133.809 102.983 C 133.583 103.464,133.051 104.209,132.627 104.639 C 132.145 105.128,131.762 105.740,131.605 106.274 C 131.466 106.745,131.040 107.469,130.656 107.890 C 128.370 110.390,131.257 112.520,136.125 111.924 C 136.935 111.825,139.089 111.793,140.911 111.853 C 145.657 112.009,145.909 112.009,147.538 111.849 C 150.014 111.606,150.731 110.303,150.102 107.187 C 149.833 105.854,148.517 105.405,144.961 105.435 C 141.789 105.461,140.376 105.079,141.371 104.464 C 141.473 104.401,141.556 104.127,141.556 103.855 C 141.556 103.571,141.792 103.084,142.108 102.715 C 142.411 102.361,142.660 101.988,142.661 101.887 C 142.662 101.786,143.117 101.223,143.674 100.636 C 144.230 100.049,144.685 99.464,144.685 99.336 C 144.685 99.208,144.852 98.924,145.055 98.705 C 145.383 98.354,145.782 97.692,146.633 96.088 C 146.767 95.835,147.159 95.364,147.503 95.040 C 147.913 94.655,148.207 94.147,148.355 93.568 C 148.479 93.081,148.657 92.493,148.750 92.260 C 149.696 89.888,148.873 89.383,143.948 89.313 C 141.772 89.282,139.618 89.250,139.162 89.242 C 138.707 89.234,137.995 89.289,137.580 89.365 C 136.874 89.494,136.785 89.459,136.157 88.813 C 134.999 87.621,133.026 87.236,131.298 87.865 M111.827 88.223 C 111.523 88.330,110.571 88.743,109.710 89.140 C 108.850 89.537,107.938 89.957,107.685 90.073 C 107.432 90.189,106.719 90.720,106.100 91.253 C 105.481 91.786,104.911 92.223,104.833 92.223 C 104.540 92.223,103.815 93.260,103.421 94.243 C 103.197 94.802,102.876 95.384,102.707 95.536 C 101.345 96.766,101.303 104.585,102.655 105.309 C 102.884 105.432,103.344 106.095,103.676 106.782 C 104.082 107.621,104.491 108.173,104.924 108.463 C 105.278 108.701,105.734 109.154,105.936 109.470 C 106.359 110.129,107.271 110.630,108.048 110.630 C 108.856 110.630,109.564 110.953,110.115 111.573 L 110.613 112.133 113.955 112.112 C 117.432 112.090,117.383 112.099,118.914 111.201 C 119.066 111.112,119.495 110.890,119.868 110.707 C 120.241 110.525,120.655 110.164,120.788 109.905 C 120.921 109.646,121.092 109.388,121.166 109.332 C 121.241 109.277,121.225 108.987,121.131 108.688 C 121.036 108.390,120.862 107.684,120.743 107.119 C 120.446 105.708,119.472 104.372,118.740 104.372 C 118.444 104.372,117.989 104.291,117.729 104.192 C 117.250 104.010,116.337 104.263,116.337 104.578 C 116.337 105.348,113.950 105.807,112.762 105.265 L 112.299 105.055 113.157 104.511 C 113.629 104.212,114.234 103.731,114.503 103.444 C 114.772 103.156,115.233 102.867,115.526 102.803 C 116.364 102.618,118.038 101.949,118.558 101.590 C 118.819 101.411,119.606 101.166,120.307 101.045 C 121.009 100.924,122.028 100.629,122.572 100.389 C 123.116 100.150,123.661 99.954,123.783 99.954 C 124.928 99.954,125.304 96.971,124.453 94.633 C 124.001 93.392,122.513 91.726,121.470 91.294 C 121.205 91.184,120.886 90.903,120.761 90.669 C 120.524 90.227,119.331 89.462,118.879 89.462 C 118.735 89.462,118.250 89.229,117.799 88.946 C 116.529 88.145,113.192 87.741,111.827 88.223 M227.832 88.362 C 227.446 88.460,226.678 88.747,226.123 89.001 C 225.569 89.254,225.027 89.462,224.919 89.462 C 224.524 89.462,223.499 90.281,221.371 92.297 C 220.773 92.864,220.226 93.327,220.156 93.327 C 220.003 93.327,219.490 94.509,219.340 95.208 C 219.281 95.482,219.037 95.903,218.798 96.142 C 217.402 97.538,217.240 103.095,218.557 104.412 C 218.804 104.659,219.188 105.435,219.411 106.136 C 219.831 107.462,220.170 107.987,220.855 108.376 C 221.819 108.922,222.073 109.102,222.774 109.735 C 223.182 110.103,223.898 110.591,224.367 110.820 C 224.835 111.050,225.332 111.326,225.470 111.434 C 225.942 111.804,227.058 112.098,228.072 112.119 C 228.629 112.130,229.540 112.193,230.097 112.259 C 231.933 112.477,235.225 111.373,236.870 109.990 C 237.844 109.170,237.514 106.868,236.190 105.237 C 235.058 103.844,235.172 103.915,234.515 104.187 C 233.019 104.807,231.496 104.372,231.617 103.359 C 231.668 102.938,233.069 102.386,234.150 102.362 C 234.621 102.351,235.040 102.146,235.688 101.611 C 236.178 101.206,236.735 100.874,236.925 100.874 C 238.859 100.874,240.954 99.607,240.957 98.435 C 240.957 98.258,241.033 98.113,241.127 98.113 C 241.437 98.113,241.562 97.006,241.289 96.674 C 241.148 96.504,240.928 96.033,240.800 95.628 C 240.442 94.499,239.977 93.446,239.715 93.173 C 239.585 93.038,239.252 92.626,238.976 92.257 C 238.699 91.888,238.244 91.345,237.966 91.049 C 237.688 90.753,237.460 90.452,237.460 90.379 C 237.460 90.214,235.675 89.463,235.272 89.459 C 234.894 89.455,233.860 89.081,233.089 88.668 C 232.375 88.286,228.923 88.085,227.832 88.362 M134.274 89.397 C 135.291 90.540,136.274 90.754,140.650 90.784 C 142.734 90.798,144.532 90.753,144.646 90.682 C 145.020 90.451,147.284 90.779,147.401 91.082 C 147.570 91.524,147.107 92.963,146.602 93.563 C 146.348 93.865,145.970 94.445,145.763 94.851 C 145.556 95.257,145.186 95.806,144.941 96.069 C 144.697 96.333,144.445 96.714,144.381 96.917 C 144.219 97.437,143.242 98.849,142.635 99.442 C 142.354 99.717,141.983 100.214,141.812 100.546 C 141.641 100.879,141.182 101.514,140.792 101.959 C 140.402 102.403,140.080 102.900,140.077 103.063 C 140.074 103.226,139.868 103.774,139.619 104.280 C 139.052 105.432,139.045 105.348,139.777 106.102 C 140.492 106.839,141.652 107.213,142.740 107.059 C 146.407 106.537,147.405 106.742,148.203 108.178 L 148.732 109.132 148.140 109.428 C 147.256 109.869,145.244 110.105,144.147 109.897 C 143.263 109.729,142.447 109.742,135.983 110.019 C 133.217 110.138,132.729 110.061,132.023 109.395 C 131.789 109.174,132.940 106.581,133.273 106.581 C 133.343 106.581,133.682 106.022,134.026 105.338 C 134.370 104.655,134.713 104.068,134.790 104.034 C 134.866 104.001,134.929 103.892,134.929 103.793 C 134.929 103.695,135.171 103.308,135.466 102.934 C 135.762 102.561,136.188 101.897,136.412 101.459 C 136.637 101.022,137.066 100.483,137.365 100.263 C 137.816 99.930,138.507 98.942,139.511 97.193 C 140.907 94.761,140.203 94.171,135.572 93.889 C 132.937 93.729,132.695 93.609,131.972 92.101 C 131.524 91.168,131.461 90.880,131.614 90.478 C 131.716 90.210,131.799 89.824,131.799 89.621 C 131.799 88.424,133.289 88.290,134.274 89.397 M313.820 89.431 C 314.954 90.542,315.993 90.749,320.491 90.758 C 322.820 90.763,324.568 90.851,325.081 90.988 L 325.909 91.210 325.860 92.039 C 325.769 93.593,325.252 95.155,324.727 95.465 C 324.255 95.743,323.792 96.482,323.792 96.956 C 323.792 97.306,323.413 97.909,322.780 98.567 C 321.276 100.129,320.117 101.680,319.847 102.493 C 319.685 102.981,319.222 103.746,318.819 104.191 C 318.011 105.084,317.991 105.140,318.299 105.715 C 318.811 106.673,318.811 106.673,322.951 106.677 C 327.141 106.681,327.201 106.693,327.584 107.610 C 328.497 109.795,327.869 110.139,323.307 109.952 C 319.082 109.779,319.578 109.771,315.805 110.069 C 312.259 110.350,310.163 109.743,311.176 108.730 C 311.399 108.507,311.824 107.646,312.758 105.522 C 312.903 105.193,313.081 104.924,313.154 104.924 C 313.455 104.924,314.588 103.757,314.588 103.447 C 314.588 103.262,314.834 102.866,315.134 102.565 C 315.435 102.265,315.978 101.511,316.342 100.891 C 316.706 100.270,317.330 99.419,317.729 99.000 C 318.127 98.580,318.454 98.127,318.454 97.991 C 318.454 97.856,318.537 97.745,318.638 97.745 C 318.739 97.745,318.824 97.600,318.827 97.423 C 318.830 97.246,318.983 96.647,319.167 96.093 C 319.679 94.547,319.311 94.333,315.607 94.027 L 312.917 93.804 311.728 92.615 C 309.752 90.639,310.195 88.861,312.694 88.744 C 312.935 88.733,313.393 89.012,313.820 89.431 M159.248 89.681 C 157.452 90.082,157.318 90.488,157.170 95.996 C 157.102 98.527,157.002 101.693,156.949 103.032 C 156.890 104.490,156.921 105.509,157.026 105.574 C 157.123 105.633,157.202 106.465,157.202 107.422 C 157.202 110.680,157.857 111.401,160.967 111.568 C 164.533 111.759,164.589 111.581,164.586 100.241 C 164.583 89.791,164.488 89.446,161.634 89.481 C 160.766 89.492,159.692 89.582,159.248 89.681 M116.225 90.095 C 116.923 90.241,117.581 90.448,117.688 90.555 C 117.795 90.662,118.026 90.750,118.200 90.750 C 118.375 90.750,118.785 90.978,119.111 91.256 C 119.438 91.535,120.124 91.973,120.635 92.230 C 121.380 92.605,121.653 92.879,122.015 93.611 C 122.263 94.113,122.580 94.591,122.719 94.673 C 123.911 95.378,123.931 98.481,122.744 98.481 C 122.658 98.481,122.266 98.694,121.874 98.954 C 121.111 99.458,119.129 99.954,117.875 99.954 C 117.223 99.954,116.984 100.075,116.235 100.782 C 115.720 101.268,115.183 101.611,114.936 101.611 C 114.703 101.611,114.323 101.684,114.091 101.774 C 113.858 101.863,113.194 102.074,112.614 102.242 C 109.618 103.109,108.847 106.045,111.497 106.496 C 111.881 106.561,112.485 106.689,112.839 106.781 C 114.153 107.119,115.246 106.996,116.644 106.351 C 117.132 106.125,119.005 106.333,119.242 106.638 C 120.035 107.661,119.767 109.707,118.839 109.712 C 118.627 109.713,118.040 109.847,117.533 110.009 C 116.217 110.430,112.123 110.461,110.999 110.057 C 110.543 109.894,109.715 109.655,109.158 109.526 C 108.083 109.277,107.347 108.850,106.553 108.014 C 106.285 107.732,106.004 107.501,105.930 107.501 C 105.722 107.501,104.945 106.548,104.692 105.983 C 104.568 105.704,104.414 105.476,104.351 105.476 C 104.288 105.476,104.186 105.166,104.124 104.786 C 103.895 103.380,103.691 102.606,103.377 101.947 C 102.607 100.331,103.688 95.611,105.179 94.078 C 105.531 93.716,106.053 93.157,106.338 92.836 C 106.675 92.457,107.276 92.109,108.053 91.844 C 108.711 91.619,109.291 91.379,109.342 91.312 C 109.684 90.853,111.328 90.196,112.172 90.180 C 112.691 90.169,113.323 90.095,113.576 90.014 C 114.279 89.788,114.842 89.806,116.225 90.095 M233.226 90.495 C 234.595 90.777,236.171 91.410,236.171 91.676 C 236.171 91.752,236.376 91.866,236.626 91.929 C 237.146 92.059,237.655 92.554,238.021 93.284 C 238.160 93.561,238.541 94.052,238.869 94.376 C 239.234 94.736,239.513 95.235,239.591 95.664 C 239.660 96.049,239.798 96.520,239.896 96.710 C 240.263 97.419,238.955 98.995,237.704 99.349 C 236.537 99.679,235.267 99.954,234.903 99.954 C 234.506 99.954,232.894 100.629,232.490 100.965 C 232.338 101.091,231.965 101.250,231.661 101.319 C 229.953 101.703,227.004 102.486,226.808 102.608 C 226.617 102.726,226.047 104.498,226.047 104.973 C 226.047 105.982,228.445 106.872,230.685 106.694 C 235.748 106.294,235.475 106.225,235.584 107.931 C 235.670 109.292,235.553 109.428,234.123 109.626 C 233.378 109.728,232.427 110.036,231.443 110.493 C 231.222 110.596,230.849 110.621,230.615 110.549 C 230.381 110.477,229.402 110.351,228.440 110.267 C 226.169 110.070,225.176 109.763,224.418 109.023 C 224.078 108.692,223.525 108.290,223.189 108.131 C 221.707 107.428,220.660 105.936,220.097 103.728 C 219.943 103.120,219.727 102.282,219.618 101.865 C 219.369 100.912,219.360 99.092,219.604 98.942 C 219.705 98.879,219.788 98.693,219.788 98.527 C 219.788 97.564,220.794 95.040,221.423 94.424 C 221.790 94.066,222.217 93.527,222.372 93.228 C 222.546 92.893,222.999 92.519,223.547 92.259 C 224.038 92.026,224.573 91.673,224.737 91.474 C 225.782 90.208,229.665 89.760,233.226 90.495 M161.893 91.377 C 163.063 92.622,163.352 94.463,163.122 99.218 C 163.012 101.496,162.973 104.167,163.035 105.155 C 163.261 108.787,162.262 110.395,160.162 109.774 C 158.948 109.415,158.682 109.006,158.638 107.435 C 158.577 105.229,158.500 101.546,158.505 101.058 C 158.507 100.805,158.506 98.879,158.502 96.778 C 158.492 92.057,158.594 91.680,160.027 91.144 C 160.982 90.787,161.385 90.837,161.893 91.377 M112.103 93.408 C 111.647 93.547,111.102 93.716,110.890 93.784 C 109.279 94.300,107.178 98.203,107.843 99.445 C 108.554 100.772,112.795 100.600,113.944 99.197 C 114.199 98.886,115.291 98.481,115.877 98.481 C 118.809 98.481,118.809 94.892,115.877 93.656 C 114.833 93.216,113.104 93.103,112.103 93.408 M227.695 93.753 C 226.851 94.164,226.092 94.749,225.164 95.706 L 223.838 97.073 223.844 98.191 C 223.851 99.389,224.579 100.823,225.142 100.747 C 227.447 100.435,230.367 99.601,230.496 99.218 C 230.529 99.118,231.054 98.908,231.661 98.750 C 233.794 98.197,234.228 97.685,234.042 95.947 C 233.798 93.668,230.331 92.469,227.695 93.753 M257.616 93.318 C 255.479 93.583,254.057 94.797,252.463 97.717 C 251.818 98.898,252.047 103.083,252.757 103.083 C 252.844 103.083,253.075 103.394,253.272 103.774 C 253.655 104.515,253.779 104.636,255.320 105.785 C 258.403 108.082,263.471 106.782,264.511 103.426 C 264.649 102.985,264.957 102.273,265.198 101.845 C 265.642 101.054,265.663 98.825,265.229 98.557 C 265.142 98.504,265.071 98.261,265.071 98.019 C 265.071 97.550,264.738 96.682,264.429 96.346 C 262.913 94.698,262.394 94.205,261.920 93.960 C 261.378 93.680,259.098 93.121,258.721 93.176 C 258.619 93.191,258.122 93.255,257.616 93.318 M287.842 93.701 C 286.580 94.244,286.056 94.614,286.056 94.963 C 286.056 95.067,285.680 95.507,285.221 95.942 C 283.217 97.839,283.029 102.140,284.873 103.912 C 285.189 104.215,285.666 104.760,285.933 105.121 C 286.410 105.767,286.567 105.874,287.935 106.475 C 288.310 106.640,288.667 106.855,288.728 106.954 C 289.072 107.510,293.479 106.549,293.981 105.808 C 294.128 105.592,294.484 105.201,294.772 104.939 C 295.061 104.678,295.445 104.328,295.626 104.162 C 295.807 103.996,296.177 103.176,296.448 102.341 C 297.808 98.138,295.442 93.739,291.648 93.420 C 290.952 93.361,290.092 93.279,289.738 93.237 C 289.301 93.186,288.690 93.336,287.842 93.701 M115.327 94.834 C 115.679 94.995,115.783 95.154,115.716 95.433 C 115.667 95.641,115.569 96.124,115.500 96.504 C 115.400 97.058,115.278 97.216,114.889 97.297 C 113.591 97.568,112.313 98.012,111.693 98.410 C 110.281 99.314,109.062 97.816,110.205 96.581 C 110.503 96.260,110.872 95.795,111.025 95.548 C 111.499 94.786,114.228 94.334,115.327 94.834 M231.447 94.846 C 231.824 95.018,231.924 95.168,231.845 95.444 C 231.787 95.647,231.688 96.102,231.626 96.457 C 231.489 97.232,231.311 97.370,230.446 97.374 C 229.527 97.378,228.652 97.697,227.852 98.320 C 226.815 99.128,226.324 98.993,225.904 97.784 C 225.695 97.185,226.678 95.720,227.289 95.720 C 227.389 95.720,227.685 95.551,227.949 95.343 C 228.741 94.720,230.595 94.456,231.447 94.846 M260.348 94.812 C 260.869 94.943,261.245 95.184,261.485 95.541 C 261.682 95.835,262.179 96.247,262.589 96.458 C 263.690 97.024,264.117 99.765,263.535 102.526 C 263.317 103.558,263.284 103.593,261.942 104.169 C 261.689 104.278,261.252 104.551,260.971 104.777 C 260.255 105.351,257.363 105.358,256.731 104.787 C 256.509 104.587,256.041 104.327,255.691 104.210 C 254.903 103.945,254.211 103.315,254.211 102.861 C 254.211 102.673,254.099 102.253,253.963 101.927 C 253.506 100.832,253.419 99.164,253.797 98.751 C 253.979 98.552,254.242 98.039,254.381 97.612 C 254.680 96.694,255.194 96.088,255.674 96.088 C 255.864 96.088,256.213 95.858,256.450 95.576 C 257.169 94.721,258.754 94.410,260.348 94.812 M292.403 94.951 C 292.881 95.036,293.202 95.217,293.330 95.473 C 293.648 96.110,293.951 96.405,294.613 96.719 C 296.036 97.394,295.862 102.908,294.401 103.463 C 294.141 103.562,293.698 103.890,293.416 104.191 C 293.134 104.493,292.788 104.740,292.646 104.740 C 292.504 104.740,292.292 104.836,292.174 104.954 C 291.682 105.446,289.061 105.380,288.268 104.856 C 287.866 104.590,287.431 104.369,287.303 104.365 C 287.037 104.357,286.486 103.600,285.766 102.255 C 285.495 101.749,285.201 101.307,285.112 101.273 C 285.024 101.239,284.952 100.990,284.952 100.720 C 284.952 100.449,284.875 99.960,284.781 99.633 C 284.677 99.268,284.677 98.998,284.781 98.933 C 284.875 98.875,284.952 98.687,284.952 98.515 C 284.952 98.344,285.200 98.093,285.504 97.959 C 285.808 97.824,286.056 97.602,286.056 97.464 C 286.056 97.128,288.115 95.046,288.558 94.932 C 289.100 94.794,291.585 94.806,292.403 94.951 "
            stroke="none" fill="#70c0e0" fill-rule="evenodd"></path>
        <path id="path4"
            d="M200.805 26.818 C 200.122 27.619,199.999 28.365,200.024 31.586 C 200.048 34.705,200.138 35.231,200.754 35.847 C 200.944 36.037,215.919 36.083,279.096 36.087 L 357.202 36.091 357.829 36.610 L 358.457 37.130 358.474 40.240 C 358.484 42.151,358.390 43.953,358.229 44.915 C 357.930 46.706,357.931 46.609,358.178 49.793 C 358.292 51.257,358.389 66.662,358.427 89.462 C 358.527 148.454,358.545 146.831,357.805 147.570 L 357.354 148.022 279.303 148.056 C 212.001 148.086,201.210 148.126,200.937 148.353 C 200.141 149.013,200.019 149.609,200.009 152.876 C 200.000 156.044,200.064 156.416,200.762 157.219 C 201.103 157.611,340.243 157.945,352.784 157.584 C 354.100 157.546,356.875 157.528,358.951 157.545 C 364.070 157.586,366.562 157.117,367.388 155.956 C 367.761 155.432,368.028 150.664,368.040 144.317 C 368.042 143.254,368.027 121.054,368.008 94.984 C 367.989 68.914,367.984 45.555,367.997 43.074 C 368.040 35.037,367.808 28.724,367.451 28.231 C 366.834 27.381,365.243 26.740,364.070 26.869 C 363.495 26.932,362.832 26.911,362.598 26.822 C 362.047 26.612,357.533 26.647,356.100 26.872 C 355.404 26.982,354.720 26.982,354.257 26.873 C 353.801 26.765,324.674 26.697,277.681 26.694 C 235.969 26.691,201.672 26.643,201.465 26.587 C 201.231 26.523,200.983 26.610,200.805 26.818 M363.202 28.443 C 364.308 28.517,365.290 28.680,365.526 28.828 L 365.934 29.085 365.870 90.889 C 365.802 157.029,365.832 155.115,364.841 155.454 C 364.233 155.663,358.021 156.027,356.834 155.924 C 356.530 155.898,321.382 155.860,278.727 155.840 C 211.116 155.809,201.151 155.770,201.003 155.537 C 200.799 155.214,200.775 150.944,200.976 150.628 C 201.267 150.171,204.769 150.067,218.132 150.120 C 257.017 150.276,357.422 150.221,357.886 150.044 C 359.719 149.344,360.141 148.349,360.157 144.685 C 360.172 141.305,360.211 70.314,360.206 54.303 C 360.205 48.684,360.254 42.513,360.315 40.589 C 360.437 36.780,360.365 36.409,359.240 35.101 C 358.277 33.980,364.759 34.065,279.862 34.056 C 237.153 34.051,202.002 33.995,201.749 33.932 C 200.870 33.713,200.828 33.588,200.828 31.194 C 200.828 29.949,200.879 28.799,200.941 28.638 C 201.043 28.371,208.102 28.346,280.858 28.349 C 324.751 28.352,360.708 28.308,360.764 28.253 C 360.819 28.198,360.959 28.189,361.075 28.233 C 361.191 28.278,362.148 28.372,363.202 28.443 M230.836 95.122 C 230.844 95.544,231.156 95.728,231.250 95.368 C 231.317 95.113,231.264 94.984,231.092 94.984 C 230.949 94.984,230.834 95.046,230.836 95.122 "
            stroke="none" fill="#24546c" fill-rule="evenodd"></path>
    </g>
</svg>